<?xml version="1.0" encoding="UTF-8"?>
<svg id="Capa_2" data-name="Capa 2" xmlns="http://www.w3.org/2000/svg" viewBox="0 0 289.13 218.46">
  <defs>
    <style>
      .cls-1 {
        fill: #fff;
        stroke: #fff;
        stroke-miterlimit: 10;
      }
    </style>
  </defs>
  <g id="Capa_1-2" data-name="Capa 1">
    <path class="cls-1" d="M142.31,30.09c7.53,10.26,15.31,20.12,22.83,28.78,7.69,8.86,11.36,12.09,18.92,21.84,3.24,4.18,11.35,10.49,13.42,22.82,2.55,15.25-2.97,26.22-7.74,33.08-6.42,9.23-19.32,15.74-30.44,19.44-16.89,5.61-41.45-1.03-49.88-6.71-9.22-6.21-16.8-13.91-19.09-20.64-4.49-13.17-4.51-25.51,2.58-38.35,6.45-11.69,19.9-22.09,28.21-32.16,7.52-9.11,14.76-18.69,21.2-28.09ZM108.55,111.66c7.7,6.02,23.08-21.58,15.82-27.69-6.54-5.5-24.2,21.14-15.82,27.69Z"/>
    <path class="cls-1" d="M156.26.53v16.33c51.81,4.37,92.09,37.38,92.09,77.47,0,43.06-46.47,77.97-103.79,77.97s-103.79-34.91-103.79-77.97c0-38.37,36.9-70.27,85.49-76.76V1.04C55.34,7.84.5,53.61.5,109.06c0,60.14,64.5,108.89,144.06,108.89s144.06-48.75,144.06-108.89S230.35,5.03,156.26.53Z"/>
  </g>
</svg>